# xmcd
#
# Track frame offsets: 
#        150
#        19716
#        33596
#        44417
#        63219
#        78107
#        91510
#        109672
#        125086
#        140878
#        155999
#        169795
#        185400
#        204010
#        219507
#        236090
#        256893
#        271898
#        289782
#        310476
#        325805
#        340857
#
# Disc length: 4776 seconds
#
# Revision: 0
# Processed by: cddbd v1.5.2PL0 Copyright (c) Steve Scherf et al.
# Submitted via: ExactAudioCopy v0.95a5
#
DISCID=3c12a616
DTITLE=Various Artist - It's Country Blues  part3 CD1
DYEAR=2007
DGENRE=Blues
TTITLE0=Jitterbug Swing - JOHN HAMMOND
TTITLE1=Hello Josephine - GEORGE THOROGOOD
TTITLE2=Take Your Time - ALBERT LEE and HOGAN'S HEROES
TTITLE3=My babe - RUDY ROTTA
TTITLE4=Deep Blue - VARGAS BLUES BAND
TTITLE5=Bad Moon Rising - The HOLMES BROTHERS
TTITLE6=I'll Believe It When I Feel It - EG KIGHT
TTITLE7=Square One - TOM PETTY
TTITLE8=On A Night Like This - MARIA MULDAUR
TTITLE9=Maggie Campbell Blues - GUY DAVIS
TTITLE10=Down Along The Cove - DUKE ROBILLARD
TTITLE11=We're Gonna Hold On - SOLOMON BURKE
TTITLE12=One Piece At A Time - BIG ED SULLIVAN
TTITLE13=Your Lighthouse - INNES SIBUN
TTITLE14=When I Write The Book - COLIN JAMES
TTITLE15=Playa Del Carmen Nights - TONY JOE and MICHELLE WHITE
TTITLE16=The cape - ERIC BIBB and MARTIN SIMPSON
TTITLE17=Fallin' Rain - NEAL BLACK
TTITLE18=Ride The River - J.J.CALE and ERIC CLAPTON
TTITLE19=When I Left Missouri - DOUG McLEOD
TTITLE20=Give a Little More - ERIC BIBB, RORY BLOCK and MARIA MULDAUR
TTITLE21=Luxury Liner - ALBERT LEE and HOGAN'S HEROES
EXTD=
EXTT0=
EXTT1=
EXTT2=
EXTT3=
EXTT4=
EXTT5=
EXTT6=
EXTT7=
EXTT8=
EXTT9=
EXTT10=
EXTT11=
EXTT12=
EXTT13=
EXTT14=
EXTT15=
EXTT16=
EXTT17=
EXTT18=
EXTT19=
EXTT20=
EXTT21=
PLAYORDER=
